<svg width="292" height="134" viewBox="0 0 292 134" fill="none" xmlns="http://www.w3.org/2000/svg">
<path fill-rule="evenodd" clip-rule="evenodd" d="M150.58 130.801C230.994 120.559 293.994 83.563 291.295 48.1723C288.591 12.7856 221.209 -7.59718 140.798 2.64891C60.3805 12.8989 -2.61562 49.8911 0.0836003 85.2778C2.78672 120.672 70.1617 141.051 150.58 130.801Z" fill="url(#paint0_linear_4774_47)"/>
<path fill-rule="evenodd" clip-rule="evenodd" d="M150.58 130.801C230.994 120.559 293.994 83.563 291.295 48.1723C288.591 12.7856 221.209 -7.59718 140.798 2.64891C60.3805 12.8989 -2.61562 49.8911 0.0836003 85.2778C2.78672 120.672 70.1617 141.051 150.58 130.801Z" fill="url(#paint1_linear_4774_47)" fill-opacity="0.11"/>
<path fill-rule="evenodd" clip-rule="evenodd" d="M37.4312 81.7853C37.3961 78.883 40.4 75.9377 46.4507 72.9533L64.5914 63.9963C63.775 62.6642 62.5132 62.0119 60.7906 62.0431C60.0797 62.047 59.0445 62.3986 57.6851 63.0861C56.3336 63.7775 55.275 64.1252 54.5211 64.1369C53.3062 64.1095 52.6656 63.3361 52.607 61.8205C52.5953 61.1056 53.4507 60.3791 55.1578 59.6408C58.2047 58.3947 60.4781 57.2892 61.9781 56.3283C64.3101 54.8713 65.4468 53.2892 65.3843 51.5978C65.3687 50.3908 64.8922 49.3674 63.9625 48.5353C63.0289 47.6994 61.9078 47.2931 60.607 47.3127C59.7281 47.3244 58.9859 47.6564 58.3843 48.3127C57.7828 48.9689 57.4898 49.7658 57.5015 50.7033C57.5172 51.8205 58.3609 52.3635 60.0445 52.3439C59.564 54.3556 57.4742 55.3908 53.7867 55.4416C51.7711 55.4728 50.0562 55.1056 48.6422 54.34C47.2281 53.5783 46.5132 52.6447 46.4976 51.5275C46.4781 49.7853 47.9664 48.2697 50.9703 46.9767C53.9781 45.6877 57.5992 45.0119 61.8375 44.9494C65.9078 44.8947 69.4 45.5041 72.3101 46.7775C75.2203 48.0549 76.689 49.6056 76.7086 51.4377C76.7398 53.9377 72.8922 56.3322 65.1539 58.633C69.8961 58.4767 72.7359 58.9885 73.6695 60.1838C80.5093 56.6955 86.4703 54.9416 91.5484 54.9142C92.5562 54.8986 93.4468 55.1213 94.2281 55.5783C95.0132 56.0353 95.4078 56.5549 95.4156 57.133C95.4156 57.2697 95.3961 57.4025 95.357 57.5392L87.4547 80.4142C87.1304 81.3595 86.1929 81.5939 84.6343 81.1252L76.7515 80.2306C76.2086 80.1486 76.0953 79.59 76.4195 78.5627L81.4859 63.383C81.65 62.8869 81.6656 62.4416 81.5328 62.047C81.4039 61.5978 81.1695 61.3791 80.8336 61.383C79.0718 61.3635 77.2554 62.3322 75.0484 63.7463C77.3882 70.2072 70.7828 76.4845 66.4273 79.9025C60.2359 84.7697 54.0562 87.2424 47.8843 87.3322C45.0328 87.3713 42.5797 86.8439 40.5328 85.758C38.482 84.672 37.4507 83.3478 37.4312 81.7853ZM140.955 91.008C140.923 88.7385 142.099 86.7736 144.486 85.1056C146.869 83.4416 149.744 82.5822 153.111 82.5314C158.658 82.4025 163.021 84.3205 166.193 88.2775C169.158 91.9299 173.025 93.7228 177.783 93.6564C175.537 96.5353 172.334 98.0275 168.169 98.1369C164.357 98.2463 161.107 95.9181 158.423 91.1603C156.396 87.551 154.392 85.7306 152.408 85.7072C151.716 85.715 151.111 85.9494 150.595 86.4064C150.08 86.8595 149.826 87.4299 149.834 88.1174C149.904 89.7502 150.783 90.5275 152.466 90.4533C154.103 90.3752 155.212 90.0978 155.798 89.6135C155.877 91.672 155.267 93.4455 153.97 94.9338C152.677 96.4299 151.087 97.1916 149.205 97.2189C146.927 97.2502 144.986 96.6564 143.384 95.4416C141.783 94.2267 140.974 92.7463 140.955 91.008ZM79.607 43.8478L140.959 43.5588C142.916 42.1603 145.127 41.4416 147.591 41.4064C148.642 41.3908 149.537 41.6681 150.279 42.2385C150.755 42.6056 151.084 43.0275 151.255 43.508L183.255 43.3595C181.896 42.6447 181.205 41.5002 181.189 39.926C181.154 37.1603 183.337 34.7658 187.74 32.7424C192.142 30.715 197.466 29.6603 203.724 29.5705C209.302 29.4924 214.064 30.2736 218.005 31.9142C221.951 33.551 223.935 36.3439 223.966 38.758C223.986 40.1369 223.173 41.3361 221.525 42.34C220.974 42.6799 220.388 42.9572 219.759 43.1838L233.095 43.1213C232.369 42.9338 231.72 42.4533 231.158 41.676C230.412 40.633 230.025 39.3791 230.013 37.9064C229.974 35.1408 231.509 32.7502 234.611 30.7424C237.712 28.7385 241.486 27.6994 245.939 27.6369C249.419 27.59 252.404 28.0744 254.892 29.09C257.38 30.1017 258.615 31.3439 258.591 32.8205C258.607 34.0236 258.298 34.8088 257.673 35.176C256.177 36.0861 253.556 36.5705 249.822 36.6252C248.986 36.5431 248.556 35.7736 248.537 34.297C248.525 33.4494 248.267 32.7424 247.755 32.1681C247.244 31.5939 246.654 31.3127 245.982 31.3205C244.681 31.34 243.576 31.9806 242.669 33.2424C241.759 34.5041 241.318 36.0041 241.337 37.7463C241.345 38.2385 241.459 38.9181 241.681 39.7853C241.9 40.6525 242.013 41.3088 242.021 41.758C242.025 42.2345 241.529 42.6799 240.533 43.0861L243.619 43.0705L249.087 42.9963L249.068 43.047L249.255 43.0431L248.341 45.051L248.111 45.6916H248.048L247.037 47.9103L194.009 48.1642C194.181 48.4064 194.212 48.715 194.091 49.0861L183.873 79.4494C183.509 80.5236 182.673 80.8713 181.365 80.4885L173.49 79.5939C172.857 79.422 172.744 78.7541 173.15 77.5939L182.861 48.6642C182.966 48.4767 183.08 48.3283 183.201 48.215L168.248 48.2853C168.912 48.5822 169.095 49.1994 168.787 50.1447L160.005 78.0588C159.56 79.4025 158.939 79.9689 158.142 79.758L149.634 79.2072C148.623 78.9533 148.302 78.2931 148.662 77.2111L152.615 65.7736C148.115 71.6408 143.22 74.6135 137.935 74.6877C134.744 74.7306 131.994 73.6642 129.677 71.4885C127.365 69.3088 126.185 66.6369 126.146 63.465C126.115 60.9689 127.029 58.2775 128.884 55.3908C130.447 52.9533 132.541 50.6408 135.162 48.4416L119.564 48.5158C120.162 48.926 120.361 49.426 120.166 50.0197L110.732 79.0822C110.244 80.5197 109.517 81.09 108.548 80.7892L100.037 79.9025C99.6656 79.8635 99.3765 79.6681 99.1851 79.3127C98.9898 78.9572 98.9547 78.6017 99.0757 78.2385L108.478 49.6525C108.642 49.1525 108.88 48.7931 109.197 48.5666L77.8101 48.715L79.607 43.8478ZM195.146 43.301L210.505 43.2267C209.869 42.9885 209.334 42.6877 208.904 42.3166C209.787 42.3478 210.529 42.0275 211.127 41.3478C211.728 40.6681 212.021 39.8595 212.009 38.926C211.99 37.3635 211.146 35.2697 209.474 34.176C207.802 33.0822 205.794 32.5549 203.443 32.5822C200.591 32.6252 198.154 33.2853 196.134 34.5666C194.119 35.8439 193.119 37.3517 193.138 39.0939C193.154 40.2072 193.689 41.2072 194.748 42.0822C195.044 42.3049 195.197 42.5939 195.201 42.9455C195.201 43.0744 195.181 43.1955 195.146 43.301ZM157.736 48.3361L149.38 48.3752C140.794 56.4416 136.525 62.7619 136.584 67.34C136.595 68.2775 136.877 69.0627 137.431 69.7033C137.986 70.3439 138.662 70.6564 139.455 70.6447C142.181 70.6056 147.068 66.7463 154.107 59.0549L157.736 48.3361ZM49.0679 81.2892C49.0797 82.0431 49.4078 82.2267 50.1968 82.6369C53.9703 84.6095 58.9039 80.6838 61.1773 78.172C63.9429 74.383 65.2203 71.5588 65.1734 67.8986L65.1695 67.5666L57.6656 71.6877C54.1656 73.5822 49.0054 76.2033 49.0679 81.2892ZM197.091 70.301C197.021 64.6799 199.701 59.8283 205.123 55.7619C210.548 51.6877 217.123 49.5978 224.845 49.4885C234.705 49.3556 239.65 50.3986 239.673 52.6291C239.693 53.7463 239.396 55.2033 238.787 56.9924L231.498 78.5275C230.97 80.0041 230.349 80.6838 229.638 80.5588L220.814 80.0119C220.482 79.9728 220.244 79.7502 220.111 79.3517C219.982 78.9064 220.002 78.465 220.162 78.0158L228.048 54.133C228.252 53.5939 228.002 53.0705 227.306 52.5666C226.607 52.0666 225.798 51.8205 224.873 51.8322C221.431 51.883 217.974 54.0275 214.502 58.2736C211.029 62.5158 209.322 66.6916 209.373 70.801C209.388 72.1799 209.677 73.3595 210.236 74.3361C210.791 75.3127 211.466 75.7892 212.267 75.7775C212.517 75.7736 212.841 75.715 213.24 75.5978C213.638 75.4845 213.943 75.4181 214.15 75.4181C214.357 75.3244 214.466 75.547 214.47 76.0822C214.486 77.1994 213.845 78.1603 212.556 78.9533C211.263 79.7541 209.72 80.1681 207.912 80.1916C204.935 80.2345 202.396 79.2892 200.294 77.3556C198.193 75.4181 197.127 73.0666 197.091 70.301Z" fill="white"/>
<defs>
<linearGradient id="paint0_linear_4774_47" x1="291.748" y1="47.2617" x2="-0.252437" y2="84.7617" gradientUnits="userSpaceOnUse">
<stop offset="0.327154" stop-color="#0F817A"/>
<stop offset="0.777208" stop-color="#174542"/>
</linearGradient>
<linearGradient id="paint1_linear_4774_47" x1="291.748" y1="47.2617" x2="-0.252437" y2="84.7617" gradientUnits="userSpaceOnUse">
<stop offset="0.327154" stop-color="#0F817A"/>
<stop offset="0.777208" stop-color="#174542"/>
</linearGradient>
</defs>
</svg>
