<svg width="169" height="77" viewBox="0 0 169 77" fill="none" xmlns="http://www.w3.org/2000/svg">
<path fill-rule="evenodd" clip-rule="evenodd" d="M87.7191 73.5301C132.428 67.8507 167.454 47.3362 165.954 27.7119C164.451 8.08971 126.987 -3.21268 82.2809 2.46884C37.5702 8.15252 2.54577 28.6649 4.04648 48.2871C5.54936 67.9135 43.0084 79.2138 87.7191 73.5301Z" fill="url(#paint0_linear_4774_47)"/>
<path fill-rule="evenodd" clip-rule="evenodd" d="M87.3366 75.4705C133.977 69.5609 170.517 48.2147 168.951 27.7948C167.384 7.37713 128.302 -4.38347 81.6634 1.52838C35.0208 7.44249 -1.51706 28.7865 0.0484884 49.2041C1.61631 69.6262 40.694 81.3846 87.3366 75.4705Z" fill="#17715E" fill-opacity="0.48"/>
<path fill-rule="evenodd" clip-rule="evenodd" d="M24.4256 47.6287C24.4064 46.0449 26.0456 44.4377 29.3474 42.8092L39.2464 37.9215C38.8009 37.1946 38.1124 36.8386 37.1724 36.8557C36.7844 36.8578 36.2196 37.0497 35.4778 37.4248C34.7403 37.8021 34.1626 37.9918 33.7512 37.9982C33.0883 37.9833 32.7387 37.5612 32.7067 36.7342C32.7003 36.3441 33.1672 35.9476 34.0987 35.5448C35.7613 34.8648 37.0019 34.2616 37.8204 33.7372C39.0929 32.9421 39.7132 32.0788 39.6791 31.1559C39.6706 30.4972 39.4105 29.9387 38.9032 29.4847C38.3938 29.0286 37.782 28.8069 37.0722 28.8175C36.5926 28.8239 36.1876 29.0051 35.8593 29.3632C35.5311 29.7213 35.3712 30.1562 35.3776 30.6677C35.3861 31.2774 35.8465 31.5736 36.7653 31.563C36.5031 32.6608 35.3627 33.2256 33.3505 33.2533C32.2506 33.2704 31.3148 33.07 30.5432 32.6522C29.7716 32.2366 29.3815 31.7271 29.373 31.1175C29.3623 30.1668 30.1744 29.3398 31.8136 28.6342C33.4549 27.9308 35.4309 27.562 37.7436 27.5279C39.9647 27.4981 41.8704 27.8306 43.4584 28.5255C45.0464 29.2225 45.8479 30.0688 45.8585 31.0685C45.8756 32.4327 43.776 33.7393 39.5534 34.9948C42.1411 34.9096 43.6907 35.1888 44.2002 35.8411C47.9326 33.9376 51.1853 32.9805 53.9564 32.9656C54.5063 32.957 54.9923 33.0785 55.4187 33.3279C55.8471 33.5773 56.0624 33.8608 56.0667 34.1763C56.0667 34.2509 56.056 34.3234 56.0347 34.398L51.7225 46.8805C51.5456 47.3963 51.034 47.5242 50.1835 47.2684L45.882 46.7803C45.5857 46.7355 45.5239 46.4307 45.7008 45.8701L48.4655 37.5868C48.555 37.3161 48.5635 37.0731 48.491 36.8578C48.4207 36.6127 48.2928 36.4933 48.1095 36.4955C47.1481 36.4848 46.157 37.0134 44.9526 37.7851C46.2294 41.3107 42.625 44.7361 40.2482 46.6012C36.8697 49.2572 33.4976 50.6065 30.1297 50.6555C28.5736 50.6768 27.235 50.389 26.1181 49.7965C24.999 49.2039 24.4362 48.4813 24.4256 47.6287ZM80.9165 52.6613C80.8995 51.4229 81.5411 50.3507 82.8435 49.4405C84.1437 48.5324 85.7126 48.0635 87.55 48.0358C90.5768 47.9654 92.9578 49.012 94.6886 51.1713C96.3065 53.1643 98.4167 54.1427 101.013 54.1065C99.7873 55.6775 98.0395 56.4917 95.7672 56.5514C93.6868 56.6111 91.9133 55.3407 90.4489 52.7444C89.3426 50.7749 88.2491 49.7815 87.1663 49.7688C86.789 49.773 86.4586 49.9009 86.1772 50.1503C85.8959 50.3976 85.7573 50.7088 85.7616 51.0839C85.8 51.9749 86.2796 52.3991 87.1983 52.3586C88.0914 52.316 88.6968 52.1646 89.0165 51.9003C89.0591 53.0237 88.7266 53.9914 88.0189 54.8035C87.3134 55.6199 86.4458 56.0356 85.4184 56.0505C84.1757 56.0676 83.1163 55.7436 82.2424 55.0806C81.3684 54.4177 80.9272 53.6098 80.9165 52.6613ZM47.4402 26.9268L80.9187 26.7691C81.9866 26.006 83.193 25.6138 84.5381 25.5946C85.1115 25.5861 85.5996 25.7374 86.0046 26.0486C86.2646 26.249 86.4437 26.4792 86.5375 26.7414L103.999 26.6604C103.258 26.2703 102.88 25.6457 102.872 24.7867C102.853 23.2776 104.044 21.9709 106.446 20.8668C108.849 19.7605 111.754 19.1849 115.169 19.1359C118.213 19.0933 120.811 19.5196 122.962 20.4149C125.115 21.308 126.198 22.8321 126.215 24.1494C126.225 24.9018 125.782 25.5562 124.882 26.104C124.582 26.2895 124.262 26.4408 123.919 26.5645L131.196 26.5303C130.8 26.428 130.446 26.1658 130.139 25.7417C129.732 25.1725 129.521 24.4883 129.514 23.6847C129.493 22.1755 130.331 20.871 132.023 19.7754C133.716 18.6819 135.775 18.1149 138.205 18.0808C140.104 18.0552 141.732 18.3195 143.09 18.8737C144.448 19.4258 145.122 20.1037 145.109 20.9094C145.117 21.5659 144.949 21.9944 144.608 22.1947C143.792 22.6914 142.361 22.9557 140.323 22.9855C139.867 22.9408 139.633 22.5209 139.622 21.7151C139.616 21.2526 139.475 20.8668 139.196 20.5534C138.917 20.2401 138.595 20.0866 138.228 20.0909C137.518 20.1015 136.915 20.4511 136.421 21.1396C135.924 21.8281 135.683 22.6466 135.694 23.5973C135.698 23.8659 135.76 24.2368 135.881 24.71C136.001 25.1832 136.062 25.5413 136.067 25.7864C136.069 26.0465 135.798 26.2895 135.255 26.5112L136.939 26.5026L139.923 26.4621L139.912 26.4898L140.014 26.4877L139.516 27.5833L139.39 27.9329H139.356L138.804 29.1437L109.868 29.2822C109.961 29.4144 109.978 29.5828 109.912 29.7853L104.336 46.354C104.138 46.9402 103.682 47.1299 102.968 46.921L98.6704 46.4328C98.3251 46.3391 98.2633 45.9746 98.485 45.3415L103.784 29.555C103.842 29.4527 103.903 29.3717 103.969 29.3099L95.8098 29.3483C96.1722 29.5103 96.2724 29.8471 96.104 30.3629L91.3122 45.5951C91.0692 46.3284 90.7303 46.6375 90.2954 46.5224L85.6529 46.2218C85.1008 46.0833 84.926 45.723 85.1221 45.1326L87.2793 38.8913C84.8237 42.093 82.1528 43.7151 79.2688 43.7556C77.5273 43.779 76.0267 43.1971 74.7627 42.0098C73.5008 40.8204 72.857 39.3624 72.8357 37.6316C72.8187 36.2695 73.3175 34.8008 74.33 33.2256C75.1826 31.8955 76.3251 30.6336 77.7554 29.4335L69.244 29.474C69.5702 29.6979 69.6789 29.9707 69.5723 30.2947L64.4245 46.1536C64.1581 46.938 63.7616 47.2492 63.233 47.0851L58.5883 46.6012C58.3858 46.5799 58.2281 46.4733 58.1236 46.2794C58.017 46.0854 57.9979 45.8914 58.0639 45.6932L63.1946 30.0943C63.2842 29.8215 63.4142 29.6254 63.5868 29.5018L46.4597 29.5828L47.4402 26.9268ZM110.488 26.6284L118.869 26.5879C118.522 26.4579 118.23 26.2937 117.995 26.0912C118.477 26.1083 118.882 25.9335 119.208 25.5626C119.536 25.1917 119.696 24.7505 119.69 24.241C119.679 23.3884 119.219 22.2459 118.306 21.649C117.394 21.0522 116.299 20.7644 115.015 20.7794C113.459 20.8028 112.129 21.163 111.027 21.8622C109.927 22.5592 109.382 23.382 109.392 24.3327C109.401 24.9402 109.693 25.4859 110.27 25.9634C110.432 26.0849 110.516 26.2426 110.518 26.4344C110.518 26.5048 110.507 26.5708 110.488 26.6284ZM90.0738 29.376L85.5143 29.3973C80.8291 33.799 78.4993 37.2479 78.5313 39.7461C78.5377 40.2577 78.6912 40.6861 78.9938 41.0357C79.2965 41.3853 79.6653 41.5558 80.098 41.5494C81.5858 41.5281 84.2524 39.4221 88.0935 35.225L90.0738 29.376ZM30.7755 47.3579C30.7819 47.7693 30.961 47.8695 31.3916 48.0933C33.4507 49.1698 36.1428 47.0276 37.3834 45.6569C38.8926 43.5893 39.5896 42.0482 39.564 40.0509L39.5619 39.8697L35.4671 42.1185C33.5572 43.1524 30.7414 44.5826 30.7755 47.3579ZM111.549 41.3618C111.511 38.2945 112.973 35.6471 115.932 33.4281C118.893 31.2049 122.48 30.0645 126.694 30.0048C132.074 29.9323 134.773 30.5015 134.786 31.7186C134.796 32.3282 134.634 33.1233 134.302 34.0996L130.324 45.8509C130.036 46.6567 129.698 47.0276 129.31 46.9593L124.494 46.6609C124.313 46.6396 124.183 46.5181 124.111 46.3007C124.04 46.0577 124.051 45.8168 124.138 45.5717L128.442 32.5393C128.553 32.2451 128.416 31.9595 128.037 31.6845C127.656 31.4116 127.214 31.2774 126.709 31.2838C124.831 31.3115 122.945 32.4817 121.05 34.7987C119.155 37.1136 118.223 39.3923 118.251 41.6347C118.26 42.3871 118.417 43.0309 118.722 43.5637C119.025 44.0966 119.394 44.3567 119.831 44.3503C119.967 44.3482 120.144 44.3162 120.361 44.2522C120.579 44.1904 120.745 44.1542 120.858 44.1542C120.971 44.103 121.031 44.2245 121.033 44.5166C121.041 45.1262 120.692 45.6506 119.988 46.0833C119.283 46.5202 118.441 46.7462 117.454 46.759C115.83 46.7824 114.444 46.2666 113.297 45.2115C112.15 44.1542 111.569 42.871 111.549 41.3618Z" fill="white"/>
<defs>
<linearGradient id="paint0_linear_4774_47" x1="166.205" y1="27.2069" x2="3.87366" y2="48.1097" gradientUnits="userSpaceOnUse">
<stop offset="0.327154" stop-color="#0F817A"/>
<stop offset="0.777208" stop-color="#174542"/>
</linearGradient>
</defs>
</svg>
